# xmcd CD Database Entry
#
# Track frame offsets:
# 183
# 30623
# 59210
# 97590
# 124870
# 158438
#
# Disc length: 2478 seconds
#
# Revision: 2
# Processed by: cddbd v1.4PL0 Copyright (c) Steve Scherf et al.
# Submitted via: tcd 2.0b
#
DISCID=4209ac06
DTITLE=Oscar Peterson
DYEAR=1900
DGENRE=
TTITLE0=Weird blues
TTITLE1=If y should lose you
TTITLE2=On danish shore
TTITLE3=L'impossible
TTITLE4=If you could see me now
TTITLE5=Limehouse blues
EXTD=
EXTT0=
EXTT1=
EXTT2=
EXTT3=
EXTT4=
EXTT5=
PLAYORDER=
